{
    "asset" : {
        "generator" : "Khronos glTF Blender I/O v3.2.43",
        "version" : "2.0"
    },
    "scene" : 0,
    "scenes" : [
        {
            "name" : "Scene",
            "nodes" : [
                0
            ]
        }
    ],
    "nodes" : [
        {
            "mesh" : 0,
            "name" : "Sphere"
        }
    ],
    "materials" : [
        {
            "doubleSided" : true,
            "name" : "Material.005",
            "pbrMetallicRoughness" : {
                "metallicFactor" : 0,
                "roughnessFactor" : 0.5
            }
        },
        {
            "doubleSided" : true,
            "name" : "Material.004",
            "pbrMetallicRoughness" : {
                "baseColorFactor" : [
                    0.8000000715255737,
                    0.5019705891609192,
                    0,
                    1
                ],
                "metallicFactor" : 0,
                "roughnessFactor" : 0.5
            }
        }
    ],
    "meshes" : [
        {
            "name" : "Sphere",
            "primitives" : [
                {
                    "attributes" : {
                        "POSITION" : 0,
                        "NORMAL" : 1,
                        "TEXCOORD_0" : 2
                    },
                    "indices" : 3,
                    "material" : 0
                },
                {
                    "attributes" : {
                        "POSITION" : 4,
                        "NORMAL" : 5,
                        "TEXCOORD_0" : 6
                    },
                    "indices" : 7,
                    "material" : 1
                }
            ]
        }
    ],
    "accessors" : [
        {
            "bufferView" : 0,
            "componentType" : 5126,
            "count" : 950,
            "max" : [
                1.104406476020813,
                1.6750168800354004,
                1.8133585453033447
            ],
            "min" : [
                -0.9095315933227539,
                -1.429553747177124,
                -1.953693151473999
            ],
            "type" : "VEC3"
        },
        {
            "bufferView" : 1,
            "componentType" : 5126,
            "count" : 950,
            "type" : "VEC3"
        },
        {
            "bufferView" : 2,
            "componentType" : 5126,
            "count" : 950,
            "type" : "VEC2"
        },
        {
            "bufferView" : 3,
            "componentType" : 5123,
            "count" : 4938,
            "type" : "SCALAR"
        },
        {
            "bufferView" : 4,
            "componentType" : 5126,
            "count" : 21,
            "max" : [
                0.5201007127761841,
                0.7843735814094543,
                -0.3053223490715027
            ],
            "min" : [
                -0.33009660243988037,
                -0.9566248655319214,
                -1.5459349155426025
            ],
            "type" : "VEC3"
        },
        {
            "bufferView" : 5,
            "componentType" : 5126,
            "count" : 21,
            "type" : "VEC3"
        },
        {
            "bufferView" : 6,
            "componentType" : 5126,
            "count" : 21,
            "type" : "VEC2"
        },
        {
            "bufferView" : 7,
            "componentType" : 5123,
            "count" : 60,
            "type" : "SCALAR"
        }
    ],
    "bufferViews" : [
        {
            "buffer" : 0,
            "byteLength" : 11400,
            "byteOffset" : 0
        },
        {
            "buffer" : 0,
            "byteLength" : 11400,
            "byteOffset" : 11400
        },
        {
            "buffer" : 0,
            "byteLength" : 7600,
            "byteOffset" : 22800
        },
        {
            "buffer" : 0,
            "byteLength" : 9876,
            "byteOffset" : 30400
        },
        {
            "buffer" : 0,
            "byteLength" : 252,
            "byteOffset" : 40276
        },
        {
            "buffer" : 0,
            "byteLength" : 252,
            "byteOffset" : 40528
        },
        {
            "buffer" : 0,
            "byteLength" : 168,
            "byteOffset" : 40780
        },
        {
            "buffer" : 0,
            "byteLength" : 120,
            "byteOffset" : 40948
        }
    ],
    "buffers" : [
        {
            "byteLength" : 41068,
            "uri" : "data:application/octet-stream;base64,"
        }
    ]
}
