{
    "asset" : {
        "generator" : "Khronos glTF Blender I/O v3.2.43",
        "version" : "2.0"
    },
    "scene" : 0,
    "scenes" : [
        {
            "name" : "Scene",
            "nodes" : [
                0,
                1
            ]
        }
    ],
    "nodes" : [
        {
            "mesh" : 0,
            "name" : "Cylinder",
            "rotation" : [
                0,
                0,
                -0.7071067094802856,
                0.7071068286895752
            ],
            "scale" : [
                0.38361018896102905,
                0.11335083842277527,
                0.38361018896102905
            ],
            "translation" : [
                -0.08779191970825195,
                -0.036413948982954025,
                0.015304088592529297
            ]
        },
        {
            "mesh" : 1,
            "name" : "Text",
            "rotation" : [
                0.5,
                0.5,
                -0.5,
                0.5000000596046448
            ],
            "scale" : [
                0.3932698965072632,
                0.3932698965072632,
                0.3932698965072632
            ],
            "translation" : [
                0.08779191970825195,
                0.009153871797025204,
                0.25048142671585083
            ]
        }
    ],
    "materials" : [
        {
            "doubleSided" : true,
            "name" : "Material.001",
            "pbrMetallicRoughness" : {
                "baseColorFactor" : [
                    0.8000000715255737,
                    0.004328982904553413,
                    0,
                    1
                ],
                "metallicFactor" : 0,
                "roughnessFactor" : 0.5
            }
        },
        {
            "doubleSided" : true,
            "name" : "Material.002",
            "pbrMetallicRoughness" : {
                "baseColorFactor" : [
                    0.5343105792999268,
                    0.8000000715255737,
                    0,
                    1
                ],
                "metallicFactor" : 0,
                "roughnessFactor" : 0.5
            }
        },
        {
            "doubleSided" : true,
            "name" : "Material.003",
            "pbrMetallicRoughness" : {
                "baseColorFactor" : [
                    0.030400201678276062,
                    0.030400201678276062,
                    0.030400201678276062,
                    1
                ],
                "metallicFactor" : 0,
                "roughnessFactor" : 0.5
            }
        }
    ],
    "meshes" : [
        {
            "name" : "Cylinder",
            "primitives" : [
                {
                    "attributes" : {
                        "POSITION" : 0,
                        "NORMAL" : 1,
                        "TEXCOORD_0" : 2
                    },
                    "indices" : 3
                },
                {
                    "attributes" : {
                        "POSITION" : 4,
                        "NORMAL" : 5,
                        "TEXCOORD_0" : 6
                    },
                    "indices" : 7,
                    "material" : 0
                },
                {
                    "attributes" : {
                        "POSITION" : 8,
                        "NORMAL" : 9,
                        "TEXCOORD_0" : 10
                    },
                    "indices" : 11,
                    "material" : 1
                }
            ]
        },
        {
            "name" : "text",
            "primitives" : [
                {
                    "attributes" : {
                        "POSITION" : 12,
                        "NORMAL" : 13,
                        "TEXCOORD_0" : 14
                    },
                    "indices" : 15,
                    "material" : 2
                }
            ]
        }
    ],
    "accessors" : [
        {
            "bufferView" : 0,
            "componentType" : 5126,
            "count" : 64,
            "max" : [
                2.1208419799804688,
                -2.1219303607940674,
                2.1208419799804688
            ],
            "min" : [
                -2.1208419799804688,
                -2.1462926864624023,
                -2.1208419799804688
            ],
            "type" : "VEC3"
        },
        {
            "bufferView" : 1,
            "componentType" : 5126,
            "count" : 64,
            "type" : "VEC3"
        },
        {
            "bufferView" : 2,
            "componentType" : 5126,
            "count" : 64,
            "type" : "VEC2"
        },
        {
            "bufferView" : 3,
            "componentType" : 5123,
            "count" : 282,
            "type" : "SCALAR"
        },
        {
            "bufferView" : 4,
            "componentType" : 5126,
            "count" : 130,
            "max" : [
                2.1208419799804688,
                -0.09756815433502197,
                2.1208419799804688
            ],
            "min" : [
                -2.1208419799804688,
                -2.1462926864624023,
                -2.1208419799804688
            ],
            "type" : "VEC3"
        },
        {
            "bufferView" : 5,
            "componentType" : 5126,
            "count" : 130,
            "type" : "VEC3"
        },
        {
            "bufferView" : 6,
            "componentType" : 5126,
            "count" : 130,
            "type" : "VEC2"
        },
        {
            "bufferView" : 7,
            "componentType" : 5123,
            "count" : 384,
            "type" : "SCALAR"
        },
        {
            "bufferView" : 8,
            "componentType" : 5126,
            "count" : 196,
            "max" : [
                1.7776260375976562,
                1.4769549369812012,
                1.7776260375976562
            ],
            "min" : [
                -1.7776261568069458,
                -0.12193024158477783,
                -1.7776260375976562
            ],
            "type" : "VEC3"
        },
        {
            "bufferView" : 9,
            "componentType" : 5126,
            "count" : 196,
            "type" : "VEC3"
        },
        {
            "bufferView" : 10,
            "componentType" : 5126,
            "count" : 196,
            "type" : "VEC2"
        },
        {
            "bufferView" : 11,
            "componentType" : 5123,
            "count" : 858,
            "type" : "SCALAR"
        },
        {
            "bufferView" : 12,
            "componentType" : 5126,
            "count" : 787,
            "max" : [
                1.968000054359436,
                0,
                0.34550002217292786
            ],
            "min" : [
                -0.749000072479248,
                0,
                -0.34550002217292786
            ],
            "type" : "VEC3"
        },
        {
            "bufferView" : 13,
            "componentType" : 5126,
            "count" : 787,
            "type" : "VEC3"
        },
        {
            "bufferView" : 14,
            "componentType" : 5126,
            "count" : 787,
            "type" : "VEC2"
        },
        {
            "bufferView" : 15,
            "componentType" : 5123,
            "count" : 1716,
            "type" : "SCALAR"
        }
    ],
    "bufferViews" : [
        {
            "buffer" : 0,
            "byteLength" : 768,
            "byteOffset" : 0
        },
        {
            "buffer" : 0,
            "byteLength" : 768,
            "byteOffset" : 768
        },
        {
            "buffer" : 0,
            "byteLength" : 512,
            "byteOffset" : 1536
        },
        {
            "buffer" : 0,
            "byteLength" : 564,
            "byteOffset" : 2048
        },
        {
            "buffer" : 0,
            "byteLength" : 1560,
            "byteOffset" : 2612
        },
        {
            "buffer" : 0,
            "byteLength" : 1560,
            "byteOffset" : 4172
        },
        {
            "buffer" : 0,
            "byteLength" : 1040,
            "byteOffset" : 5732
        },
        {
            "buffer" : 0,
            "byteLength" : 768,
            "byteOffset" : 6772
        },
        {
            "buffer" : 0,
            "byteLength" : 2352,
            "byteOffset" : 7540
        },
        {
            "buffer" : 0,
            "byteLength" : 2352,
            "byteOffset" : 9892
        },
        {
            "buffer" : 0,
            "byteLength" : 1568,
            "byteOffset" : 12244
        },
        {
            "buffer" : 0,
            "byteLength" : 1716,
            "byteOffset" : 13812
        },
        {
            "buffer" : 0,
            "byteLength" : 9444,
            "byteOffset" : 15528
        },
        {
            "buffer" : 0,
            "byteLength" : 9444,
            "byteOffset" : 24972
        },
        {
            "buffer" : 0,
            "byteLength" : 6296,
            "byteOffset" : 34416
        },
        {
            "buffer" : 0,
            "byteLength" : 3432,
            "byteOffset" : 40712
        }
    ],
    "buffers" : [
        {
            "byteLength" : 44144,
            "uri" : "data:application/octet-stream;base64,"
        }
    ]
}
