{
    "asset" : {
        "generator" : "Khronos glTF Blender I/O v3.2.43",
        "version" : "2.0"
    },
    "scene" : 0,
    "scenes" : [
        {
            "name" : "Scene",
            "nodes" : [
                0
            ]
        }
    ],
    "nodes" : [
        {
            "mesh" : 0,
            "name" : "Sphere.001",
            "scale" : [
                0.6768210530281067,
                0.5115713477134705,
                1.1187890768051147
            ]
        }
    ],
    "materials" : [
        {
            "doubleSided" : true,
            "name" : "Material.008",
            "pbrMetallicRoughness" : {
                "baseColorFactor" : [
                    0.4261377453804016,
                    0.4261377453804016,
                    0.4261377453804016,
                    1
                ],
                "metallicFactor" : 0,
                "roughnessFactor" : 0.5
            }
        },
        {
            "doubleSided" : true,
            "name" : "Material.010",
            "pbrMetallicRoughness" : {
                "baseColorFactor" : [
                    0.1297643482685089,
                    0.1297643482685089,
                    0.1297643482685089,
                    1
                ],
                "metallicFactor" : 0,
                "roughnessFactor" : 0.5
            }
        },
        {
            "doubleSided" : true,
            "name" : "Material.011",
            "pbrMetallicRoughness" : {
                "metallicFactor" : 0,
                "roughnessFactor" : 0.5
            }
        },
        {
            "doubleSided" : true,
            "name" : "Material.012",
            "pbrMetallicRoughness" : {
                "baseColorFactor" : [
                    0,
                    0,
                    0,
                    1
                ],
                "metallicFactor" : 0,
                "roughnessFactor" : 0.5
            }
        }
    ],
    "meshes" : [
        {
            "name" : "Sphere.002",
            "primitives" : [
                {
                    "attributes" : {
                        "POSITION" : 0,
                        "NORMAL" : 1,
                        "TEXCOORD_0" : 2
                    },
                    "indices" : 3,
                    "material" : 0
                },
                {
                    "attributes" : {
                        "POSITION" : 4,
                        "NORMAL" : 5,
                        "TEXCOORD_0" : 6
                    },
                    "indices" : 7,
                    "material" : 1
                },
                {
                    "attributes" : {
                        "POSITION" : 8,
                        "NORMAL" : 9,
                        "TEXCOORD_0" : 10
                    },
                    "indices" : 11,
                    "material" : 2
                },
                {
                    "attributes" : {
                        "POSITION" : 12,
                        "NORMAL" : 13,
                        "TEXCOORD_0" : 14
                    },
                    "indices" : 15,
                    "material" : 3
                }
            ]
        }
    ],
    "accessors" : [
        {
            "bufferView" : 0,
            "componentType" : 5126,
            "count" : 349,
            "max" : [
                0.4679757058620453,
                -2.8852008782109806e-08,
                0.9999994039535522
            ],
            "min" : [
                -0.47700411081314087,
                -1.277984857559204,
                -1.021351933479309
            ],
            "type" : "VEC3"
        },
        {
            "bufferView" : 1,
            "componentType" : 5126,
            "count" : 349,
            "type" : "VEC3"
        },
        {
            "bufferView" : 2,
            "componentType" : 5126,
            "count" : 349,
            "type" : "VEC2"
        },
        {
            "bufferView" : 3,
            "componentType" : 5123,
            "count" : 1338,
            "type" : "SCALAR"
        },
        {
            "bufferView" : 4,
            "componentType" : 5126,
            "count" : 568,
            "max" : [
                0.3832966089248657,
                1.770784616470337,
                0.9999994039535522
            ],
            "min" : [
                -0.3827435374259949,
                -1.5784401893615723,
                -1.354088544845581
            ],
            "type" : "VEC3"
        },
        {
            "bufferView" : 5,
            "componentType" : 5126,
            "count" : 568,
            "type" : "VEC3"
        },
        {
            "bufferView" : 6,
            "componentType" : 5126,
            "count" : 568,
            "type" : "VEC2"
        },
        {
            "bufferView" : 7,
            "componentType" : 5123,
            "count" : 2082,
            "type" : "SCALAR"
        },
        {
            "bufferView" : 8,
            "componentType" : 5126,
            "count" : 24,
            "max" : [
                0.2725503146648407,
                0.3825978934764862,
                0.7871735095977783
            ],
            "min" : [
                0.18769478797912598,
                0.1951759159564972,
                0.6780624389648438
            ],
            "type" : "VEC3"
        },
        {
            "bufferView" : 9,
            "componentType" : 5126,
            "count" : 24,
            "type" : "VEC3"
        },
        {
            "bufferView" : 10,
            "componentType" : 5126,
            "count" : 24,
            "type" : "VEC2"
        },
        {
            "bufferView" : 11,
            "componentType" : 5123,
            "count" : 72,
            "type" : "SCALAR"
        },
        {
            "bufferView" : 12,
            "componentType" : 5126,
            "count" : 9,
            "max" : [
                0.2562597393989563,
                0.33258962631225586,
                0.7682254910469055
            ],
            "min" : [
                0.203985333442688,
                0.24518418312072754,
                0.697010338306427
            ],
            "type" : "VEC3"
        },
        {
            "bufferView" : 13,
            "componentType" : 5126,
            "count" : 9,
            "type" : "VEC3"
        },
        {
            "bufferView" : 14,
            "componentType" : 5126,
            "count" : 9,
            "type" : "VEC2"
        },
        {
            "bufferView" : 15,
            "componentType" : 5123,
            "count" : 24,
            "type" : "SCALAR"
        }
    ],
    "bufferViews" : [
        {
            "buffer" : 0,
            "byteLength" : 4188,
            "byteOffset" : 0
        },
        {
            "buffer" : 0,
            "byteLength" : 4188,
            "byteOffset" : 4188
        },
        {
            "buffer" : 0,
            "byteLength" : 2792,
            "byteOffset" : 8376
        },
        {
            "buffer" : 0,
            "byteLength" : 2676,
            "byteOffset" : 11168
        },
        {
            "buffer" : 0,
            "byteLength" : 6816,
            "byteOffset" : 13844
        },
        {
            "buffer" : 0,
            "byteLength" : 6816,
            "byteOffset" : 20660
        },
        {
            "buffer" : 0,
            "byteLength" : 4544,
            "byteOffset" : 27476
        },
        {
            "buffer" : 0,
            "byteLength" : 4164,
            "byteOffset" : 32020
        },
        {
            "buffer" : 0,
            "byteLength" : 288,
            "byteOffset" : 36184
        },
        {
            "buffer" : 0,
            "byteLength" : 288,
            "byteOffset" : 36472
        },
        {
            "buffer" : 0,
            "byteLength" : 192,
            "byteOffset" : 36760
        },
        {
            "buffer" : 0,
            "byteLength" : 144,
            "byteOffset" : 36952
        },
        {
            "buffer" : 0,
            "byteLength" : 108,
            "byteOffset" : 37096
        },
        {
            "buffer" : 0,
            "byteLength" : 108,
            "byteOffset" : 37204
        },
        {
            "buffer" : 0,
            "byteLength" : 72,
            "byteOffset" : 37312
        },
        {
            "buffer" : 0,
            "byteLength" : 48,
            "byteOffset" : 37384
        }
    ],
    "buffers" : [
        {
            "byteLength" : 37432,
            "uri" : "data:application/octet-stream;base64,"
        }
    ]
}
