{
    "asset" : {
        "generator" : "Khronos glTF Blender I/O v3.3.32",
        "version" : "2.0"
    },
    "scene" : 0,
    "scenes" : [
        {
            "name" : "Scene",
            "nodes" : [
                0,
                1,
                2,
                3,
                4
            ]
        }
    ],
    "nodes" : [
        {
            "mesh" : 0,
            "name" : "Sphere",
            "rotation" : [
                0.05134722962975502,
                0.0457659475505352,
                -0.3373061716556549,
                0.9388788342475891
            ],
            "scale" : [
                1,
                0.0445517860352993,
                0.47655388712882996
            ],
            "translation" : [
                0.24145632982254028,
                2.715031147003174,
                0.1238437294960022
            ]
        },
        {
            "mesh" : 1,
            "name" : "Sphere.001",
            "rotation" : [
                -0.1623803675174713,
                -0.4562959372997284,
                -0.293322890996933,
                0.8242501616477966
            ],
            "scale" : [
                1,
                0.0445517860352993,
                0.47655394673347473
            ],
            "translation" : [
                0.5530486702919006,
                2.4302759170532227,
                -0.8014500141143799
            ]
        },
        {
            "mesh" : 2,
            "name" : "Sphere.002",
            "rotation" : [
                -0.30937063694000244,
                -0.8693451285362244,
                -0.12921102344989777,
                0.3630886673927307
            ],
            "scale" : [
                1,
                0.0445517860352993,
                0.47655388712882996
            ],
            "translation" : [
                1.391158103942871,
                1.6743261814117432,
                -0.7410616874694824
            ]
        },
        {
            "mesh" : 3,
            "name" : "Sphere.003",
            "rotation" : [
                0.33391836285591125,
                0.9383252859115601,
                -0.03007022850215435,
                0.08449872583150864
            ],
            "scale" : [
                1,
                0.044551782310009,
                0.47655391693115234
            ],
            "translation" : [
                1.6027355194091797,
                1.4559905529022217,
                0.22515159845352173
            ]
        },
        {
            "mesh" : 4,
            "name" : "Sphere.004",
            "rotation" : [
                0.2295297384262085,
                0.6449885964393616,
                -0.2443804293870926,
                0.6867197751998901
            ],
            "scale" : [
                1,
                0.0445517860352993,
                0.47655394673347473
            ],
            "translation" : [
                0.8495559692382812,
                2.114351272583008,
                0.876003623008728
            ]
        }
    ],
    "materials" : [
        {
            "doubleSided" : true,
            "name" : "Material.012",
            "pbrMetallicRoughness" : {
                "metallicFactor" : 0,
                "roughnessFactor" : 0.5
            }
        },
        {
            "doubleSided" : true,
            "name" : "Material.013",
            "pbrMetallicRoughness" : {
                "metallicFactor" : 0,
                "roughnessFactor" : 0.5
            }
        },
        {
            "doubleSided" : true,
            "name" : "Material.014",
            "pbrMetallicRoughness" : {
                "metallicFactor" : 0,
                "roughnessFactor" : 0.5
            }
        },
        {
            "doubleSided" : true,
            "name" : "Material.015",
            "pbrMetallicRoughness" : {
                "metallicFactor" : 0,
                "roughnessFactor" : 0.5
            }
        },
        {
            "doubleSided" : true,
            "name" : "Material.016",
            "pbrMetallicRoughness" : {
                "metallicFactor" : 0,
                "roughnessFactor" : 0.5
            }
        }
    ],
    "meshes" : [
        {
            "name" : "Sphere.001",
            "primitives" : [
                {
                    "attributes" : {
                        "POSITION" : 0,
                        "NORMAL" : 1,
                        "TEXCOORD_0" : 2
                    },
                    "indices" : 3,
                    "material" : 0
                }
            ]
        },
        {
            "name" : "Sphere.002",
            "primitives" : [
                {
                    "attributes" : {
                        "POSITION" : 4,
                        "NORMAL" : 5,
                        "TEXCOORD_0" : 6
                    },
                    "indices" : 3,
                    "material" : 1
                }
            ]
        },
        {
            "name" : "Sphere.003",
            "primitives" : [
                {
                    "attributes" : {
                        "POSITION" : 7,
                        "NORMAL" : 8,
                        "TEXCOORD_0" : 9
                    },
                    "indices" : 3,
                    "material" : 2
                }
            ]
        },
        {
            "name" : "Sphere.004",
            "primitives" : [
                {
                    "attributes" : {
                        "POSITION" : 10,
                        "NORMAL" : 11,
                        "TEXCOORD_0" : 12
                    },
                    "indices" : 3,
                    "material" : 3
                }
            ]
        },
        {
            "name" : "Sphere.005",
            "primitives" : [
                {
                    "attributes" : {
                        "POSITION" : 13,
                        "NORMAL" : 14,
                        "TEXCOORD_0" : 15
                    },
                    "indices" : 3,
                    "material" : 4
                }
            ]
        }
    ],
    "accessors" : [
        {
            "bufferView" : 0,
            "componentType" : 5126,
            "count" : 559,
            "max" : [
                0.9999997019767761,
                0.6048375964164734,
                0.9999993443489075
            ],
            "min" : [
                -0.9999990463256836,
                -8.80784797668457,
                -1
            ],
            "type" : "VEC3"
        },
        {
            "bufferView" : 1,
            "componentType" : 5126,
            "count" : 559,
            "type" : "VEC3"
        },
        {
            "bufferView" : 2,
            "componentType" : 5126,
            "count" : 559,
            "type" : "VEC2"
        },
        {
            "bufferView" : 3,
            "componentType" : 5123,
            "count" : 2880,
            "type" : "SCALAR"
        },
        {
            "bufferView" : 4,
            "componentType" : 5126,
            "count" : 559,
            "max" : [
                0.9999997019767761,
                0.6048375964164734,
                0.9999993443489075
            ],
            "min" : [
                -0.9999990463256836,
                -8.80784797668457,
                -1
            ],
            "type" : "VEC3"
        },
        {
            "bufferView" : 5,
            "componentType" : 5126,
            "count" : 559,
            "type" : "VEC3"
        },
        {
            "bufferView" : 6,
            "componentType" : 5126,
            "count" : 559,
            "type" : "VEC2"
        },
        {
            "bufferView" : 7,
            "componentType" : 5126,
            "count" : 559,
            "max" : [
                0.9999997019767761,
                0.6048375964164734,
                0.9999993443489075
            ],
            "min" : [
                -0.9999990463256836,
                -8.80784797668457,
                -1
            ],
            "type" : "VEC3"
        },
        {
            "bufferView" : 8,
            "componentType" : 5126,
            "count" : 559,
            "type" : "VEC3"
        },
        {
            "bufferView" : 9,
            "componentType" : 5126,
            "count" : 559,
            "type" : "VEC2"
        },
        {
            "bufferView" : 10,
            "componentType" : 5126,
            "count" : 559,
            "max" : [
                0.9999997019767761,
                0.6048375964164734,
                0.9999993443489075
            ],
            "min" : [
                -0.9999990463256836,
                -8.80784797668457,
                -1
            ],
            "type" : "VEC3"
        },
        {
            "bufferView" : 11,
            "componentType" : 5126,
            "count" : 559,
            "type" : "VEC3"
        },
        {
            "bufferView" : 12,
            "componentType" : 5126,
            "count" : 559,
            "type" : "VEC2"
        },
        {
            "bufferView" : 13,
            "componentType" : 5126,
            "count" : 559,
            "max" : [
                0.9999997019767761,
                0.6048375964164734,
                0.9999993443489075
            ],
            "min" : [
                -0.9999990463256836,
                -8.80784797668457,
                -1
            ],
            "type" : "VEC3"
        },
        {
            "bufferView" : 14,
            "componentType" : 5126,
            "count" : 559,
            "type" : "VEC3"
        },
        {
            "bufferView" : 15,
            "componentType" : 5126,
            "count" : 559,
            "type" : "VEC2"
        }
    ],
    "bufferViews" : [
        {
            "buffer" : 0,
            "byteLength" : 6708,
            "byteOffset" : 0,
            "target" : 34962
        },
        {
            "buffer" : 0,
            "byteLength" : 6708,
            "byteOffset" : 6708,
            "target" : 34962
        },
        {
            "buffer" : 0,
            "byteLength" : 4472,
            "byteOffset" : 13416,
            "target" : 34962
        },
        {
            "buffer" : 0,
            "byteLength" : 5760,
            "byteOffset" : 17888,
            "target" : 34963
        },
        {
            "buffer" : 0,
            "byteLength" : 6708,
            "byteOffset" : 23648,
            "target" : 34962
        },
        {
            "buffer" : 0,
            "byteLength" : 6708,
            "byteOffset" : 30356,
            "target" : 34962
        },
        {
            "buffer" : 0,
            "byteLength" : 4472,
            "byteOffset" : 37064,
            "target" : 34962
        },
        {
            "buffer" : 0,
            "byteLength" : 6708,
            "byteOffset" : 41536,
            "target" : 34962
        },
        {
            "buffer" : 0,
            "byteLength" : 6708,
            "byteOffset" : 48244,
            "target" : 34962
        },
        {
            "buffer" : 0,
            "byteLength" : 4472,
            "byteOffset" : 54952,
            "target" : 34962
        },
        {
            "buffer" : 0,
            "byteLength" : 6708,
            "byteOffset" : 59424,
            "target" : 34962
        },
        {
            "buffer" : 0,
            "byteLength" : 6708,
            "byteOffset" : 66132,
            "target" : 34962
        },
        {
            "buffer" : 0,
            "byteLength" : 4472,
            "byteOffset" : 72840,
            "target" : 34962
        },
        {
            "buffer" : 0,
            "byteLength" : 6708,
            "byteOffset" : 77312,
            "target" : 34962
        },
        {
            "buffer" : 0,
            "byteLength" : 6708,
            "byteOffset" : 84020,
            "target" : 34962
        },
        {
            "buffer" : 0,
            "byteLength" : 4472,
            "byteOffset" : 90728,
            "target" : 34962
        }
    ],
    "buffers" : [
        {
            "byteLength" : 95200,
            "uri" : "data:application/octet-stream;base64,"
        }
    ]
}
