{
    "asset" : {
        "generator" : "Khronos glTF Blender I/O v3.3.32",
        "version" : "2.0"
    },
    "extensionsUsed" : [
        "KHR_materials_specular",
        "KHR_materials_ior"
    ],
    "scene" : 0,
    "scenes" : [
        {
            "name" : "Scene",
            "nodes" : [
                0,
                1,
                2
            ]
        }
    ],
    "nodes" : [
        {
            "mesh" : 0,
            "name" : "Text",
            "rotation" : [
                0.4998167157173157,
                0.4998167157173157,
                -0.5001832246780396,
                0.5001831650733948
            ],
            "translation" : [
                0,
                -0.6668207049369812,
                0.1349940299987793
            ]
        },
        {
            "mesh" : 1,
            "name" : "Sphere.012",
            "rotation" : [
                -0.14384658634662628,
                0.3403073251247406,
                -0.5349552035331726,
                0.7598171234130859
            ],
            "scale" : [
                0.19804173707962036,
                1.0595999956130981,
                0.38338279724121094
            ],
            "translation" : [
                1.006697177886963,
                0.8427851796150208,
                -0.32033392786979675
            ]
        },
        {
            "name" : "lotus",
            "rotation" : [
                -1,
                0,
                0,
                7.549790126404332e-08
            ],
            "scale" : [
                -0.3997339606285095,
                -0.3997339606285095,
                -0.3997339606285095
            ],
            "translation" : [
                0.21431612968444824,
                1.2084323167800903,
                0.17324188351631165
            ]
        }
    ],
    "materials" : [
        {
            "doubleSided" : true,
            "name" : "Material.017",
            "pbrMetallicRoughness" : {
                "baseColorFactor" : [
                    0.8000000715255737,
                    0.16718198359012604,
                    0,
                    1
                ],
                "metallicFactor" : 0,
                "roughnessFactor" : 0.5
            }
        },
        {
            "doubleSided" : true,
            "extensions" : {
                "KHR_materials_specular" : {
                    "specularColorFactor" : [
                        0,
                        0,
                        0
                    ]
                },
                "KHR_materials_ior" : {
                    "ior" : 1.4500000476837158
                }
            },
            "name" : "lotus_heart",
            "pbrMetallicRoughness" : {
                "baseColorFactor" : [
                    0.5790920257568359,
                    1,
                    0,
                    1
                ],
                "metallicFactor" : 0,
                "roughnessFactor" : 0.5527864098548889
            }
        },
        {
            "doubleSided" : true,
            "name" : "Material.006",
            "pbrMetallicRoughness" : {
                "baseColorFactor" : [
                    0.8000000715255737,
                    0,
                    0.5639500617980957,
                    1
                ],
                "metallicFactor" : 0,
                "roughnessFactor" : 0.5
            }
        }
    ],
    "meshes" : [
        {
            "name" : "Text",
            "primitives" : [
                {
                    "attributes" : {
                        "POSITION" : 0,
                        "NORMAL" : 1,
                        "TEXCOORD_0" : 2
                    },
                    "indices" : 3,
                    "material" : 0
                }
            ]
        },
        {
            "name" : "Sphere.013",
            "primitives" : [
                {
                    "attributes" : {
                        "POSITION" : 4,
                        "NORMAL" : 5,
                        "TEXCOORD_0" : 6,
                        "TEXCOORD_1" : 7
                    },
                    "indices" : 8,
                    "material" : 1
                },
                {
                    "attributes" : {
                        "POSITION" : 9,
                        "NORMAL" : 10,
                        "TEXCOORD_0" : 11,
                        "TEXCOORD_1" : 12
                    },
                    "indices" : 13,
                    "material" : 2
                }
            ]
        }
    ],
    "accessors" : [
        {
            "bufferView" : 0,
            "componentType" : 5126,
            "count" : 2375,
            "max" : [
                0.9830000996589661,
                0.04999999701976776,
                0.34550002217292786
            ],
            "min" : [
                -0.9010000228881836,
                -0.04999999701976776,
                -0.34550002217292786
            ],
            "type" : "VEC3"
        },
        {
            "bufferView" : 1,
            "componentType" : 5126,
            "count" : 2375,
            "type" : "VEC3"
        },
        {
            "bufferView" : 2,
            "componentType" : 5126,
            "count" : 2375,
            "type" : "VEC2"
        },
        {
            "bufferView" : 3,
            "componentType" : 5123,
            "count" : 4128,
            "type" : "SCALAR"
        },
        {
            "bufferView" : 4,
            "componentType" : 5126,
            "count" : 455,
            "max" : [
                -0.7454900145530701,
                -0.5371304750442505,
                0.2217429280281067
            ],
            "min" : [
                -3.275911808013916,
                -1.0729178190231323,
                -1.0900057554244995
            ],
            "type" : "VEC3"
        },
        {
            "bufferView" : 5,
            "componentType" : 5126,
            "count" : 455,
            "type" : "VEC3"
        },
        {
            "bufferView" : 6,
            "componentType" : 5126,
            "count" : 455,
            "type" : "VEC2"
        },
        {
            "bufferView" : 7,
            "componentType" : 5126,
            "count" : 455,
            "type" : "VEC2"
        },
        {
            "bufferView" : 8,
            "componentType" : 5123,
            "count" : 1614,
            "type" : "SCALAR"
        },
        {
            "bufferView" : 9,
            "componentType" : 5126,
            "count" : 5166,
            "max" : [
                1.2344650030136108,
                1.0143027305603027,
                4.320366859436035
            ],
            "min" : [
                -7.63209342956543,
                -2.374366044998169,
                -5.090048313140869
            ],
            "type" : "VEC3"
        },
        {
            "bufferView" : 10,
            "componentType" : 5126,
            "count" : 5166,
            "type" : "VEC3"
        },
        {
            "bufferView" : 11,
            "componentType" : 5126,
            "count" : 5166,
            "type" : "VEC2"
        },
        {
            "bufferView" : 12,
            "componentType" : 5126,
            "count" : 5166,
            "type" : "VEC2"
        },
        {
            "bufferView" : 13,
            "componentType" : 5123,
            "count" : 25920,
            "type" : "SCALAR"
        }
    ],
    "bufferViews" : [
        {
            "buffer" : 0,
            "byteLength" : 28500,
            "byteOffset" : 0,
            "target" : 34962
        },
        {
            "buffer" : 0,
            "byteLength" : 28500,
            "byteOffset" : 28500,
            "target" : 34962
        },
        {
            "buffer" : 0,
            "byteLength" : 19000,
            "byteOffset" : 57000,
            "target" : 34962
        },
        {
            "buffer" : 0,
            "byteLength" : 8256,
            "byteOffset" : 76000,
            "target" : 34963
        },
        {
            "buffer" : 0,
            "byteLength" : 5460,
            "byteOffset" : 84256,
            "target" : 34962
        },
        {
            "buffer" : 0,
            "byteLength" : 5460,
            "byteOffset" : 89716,
            "target" : 34962
        },
        {
            "buffer" : 0,
            "byteLength" : 3640,
            "byteOffset" : 95176,
            "target" : 34962
        },
        {
            "buffer" : 0,
            "byteLength" : 3640,
            "byteOffset" : 98816,
            "target" : 34962
        },
        {
            "buffer" : 0,
            "byteLength" : 3228,
            "byteOffset" : 102456,
            "target" : 34963
        },
        {
            "buffer" : 0,
            "byteLength" : 61992,
            "byteOffset" : 105684,
            "target" : 34962
        },
        {
            "buffer" : 0,
            "byteLength" : 61992,
            "byteOffset" : 167676,
            "target" : 34962
        },
        {
            "buffer" : 0,
            "byteLength" : 41328,
            "byteOffset" : 229668,
            "target" : 34962
        },
        {
            "buffer" : 0,
            "byteLength" : 41328,
            "byteOffset" : 270996,
            "target" : 34962
        },
        {
            "buffer" : 0,
            "byteLength" : 51840,
            "byteOffset" : 312324,
            "target" : 34963
        }
    ],
    "buffers" : [
        {
            "byteLength" : 364164,
            "uri" : "data:application/octet-stream;base64,"
        }
    ]
}
