{
    "asset" : {
        "generator" : "Khronos glTF Blender I/O v3.3.32",
        "version" : "2.0"
    },
    "extensionsUsed" : [
        "KHR_materials_specular",
        "KHR_materials_ior"
    ],
    "scene" : 0,
    "scenes" : [
        {
            "name" : "Scene",
            "nodes" : [
                0,
                3
            ]
        }
    ],
    "nodes" : [
        {
            "mesh" : 0,
            "name" : "Text",
            "rotation" : [
                0.4998167157173157,
                0.4998167157173157,
                -0.5001832246780396,
                0.5001831650733948
            ],
            "translation" : [
                0,
                -0.6668207049369812,
                0.1349940299987793
            ]
        },
        {
            "mesh" : 1,
            "name" : "lotus_heart",
            "scale" : [
                0.02697896398603916,
                0.026978962123394012,
                0.02697896398603916
            ],
            "translation" : [
                0.04374414309859276,
                -1.2422043085098267,
                0.09099709242582321
            ]
        },
        {
            "mesh" : 2,
            "name" : "lotus_heart.001",
            "scale" : [
                0.02697896398603916,
                0.026978962123394012,
                0.02697896398603916
            ],
            "translation" : [
                0.04374414309859276,
                -1.2422043085098267,
                0.09099709242582321
            ]
        },
        {
            "children" : [
                1,
                2
            ],
            "name" : "lotus",
            "rotation" : [
                -1,
                0,
                0,
                7.549790126404332e-08
            ],
            "scale" : [
                -0.5649887919425964,
                -0.5649887919425964,
                -0.5649887919425964
            ],
            "translation" : [
                -0.0005379700451157987,
                1.3239924907684326,
                -0.0005429899320006371
            ]
        }
    ],
    "materials" : [
        {
            "doubleSided" : true,
            "name" : "Material.017",
            "pbrMetallicRoughness" : {
                "baseColorFactor" : [
                    0.8000000715255737,
                    0.16718198359012604,
                    0,
                    1
                ],
                "metallicFactor" : 0,
                "roughnessFactor" : 0.5
            }
        },
        {
            "doubleSided" : true,
            "extensions" : {
                "KHR_materials_specular" : {
                    "specularColorFactor" : [
                        0,
                        0,
                        0
                    ]
                },
                "KHR_materials_ior" : {
                    "ior" : 1.4500000476837158
                }
            },
            "name" : "lotus_heart",
            "pbrMetallicRoughness" : {
                "baseColorFactor" : [
                    0.5790920257568359,
                    1,
                    0,
                    1
                ],
                "metallicFactor" : 0,
                "roughnessFactor" : 0.5527864098548889
            }
        },
        {
            "doubleSided" : true,
            "name" : "Material.005",
            "pbrMetallicRoughness" : {
                "baseColorFactor" : [
                    0.12260875105857849,
                    0.006074066273868084,
                    0.2244693785905838,
                    1
                ],
                "metallicFactor" : 0,
                "roughnessFactor" : 0.4000000059604645
            }
        }
    ],
    "meshes" : [
        {
            "name" : "Text",
            "primitives" : [
                {
                    "attributes" : {
                        "POSITION" : 0,
                        "NORMAL" : 1,
                        "TEXCOORD_0" : 2
                    },
                    "indices" : 3,
                    "material" : 0
                }
            ]
        },
        {
            "name" : "Mesh.066",
            "primitives" : [
                {
                    "attributes" : {
                        "POSITION" : 4,
                        "NORMAL" : 5,
                        "TEXCOORD_0" : 6
                    },
                    "indices" : 7,
                    "material" : 1
                }
            ]
        },
        {
            "name" : "Mesh.001",
            "primitives" : [
                {
                    "attributes" : {
                        "POSITION" : 8,
                        "NORMAL" : 9,
                        "TEXCOORD_0" : 10
                    },
                    "indices" : 11,
                    "material" : 2
                }
            ]
        }
    ],
    "accessors" : [
        {
            "bufferView" : 0,
            "componentType" : 5126,
            "count" : 2375,
            "max" : [
                0.9830000996589661,
                0.04999999701976776,
                0.34550002217292786
            ],
            "min" : [
                -0.9010000228881836,
                -0.04999999701976776,
                -0.34550002217292786
            ],
            "type" : "VEC3"
        },
        {
            "bufferView" : 1,
            "componentType" : 5126,
            "count" : 2375,
            "type" : "VEC3"
        },
        {
            "bufferView" : 2,
            "componentType" : 5126,
            "count" : 2375,
            "type" : "VEC2"
        },
        {
            "bufferView" : 3,
            "componentType" : 5123,
            "count" : 4128,
            "type" : "SCALAR"
        },
        {
            "bufferView" : 4,
            "componentType" : 5126,
            "count" : 455,
            "max" : [
                23.000389099121094,
                33.5766487121582,
                23.110591888427734
            ],
            "min" : [
                -23.614423751831055,
                -2.838735818862915,
                -23.491357803344727
            ],
            "type" : "VEC3"
        },
        {
            "bufferView" : 5,
            "componentType" : 5126,
            "count" : 455,
            "type" : "VEC3"
        },
        {
            "bufferView" : 6,
            "componentType" : 5126,
            "count" : 455,
            "type" : "VEC2"
        },
        {
            "bufferView" : 7,
            "componentType" : 5123,
            "count" : 1614,
            "type" : "SCALAR"
        },
        {
            "bufferView" : 8,
            "componentType" : 5126,
            "count" : 1413,
            "max" : [
                100.20626831054688,
                96.26226806640625,
                96.42887878417969
            ],
            "min" : [
                -103.48924255371094,
                -3.899595260620117,
                -103.22463989257812
            ],
            "type" : "VEC3"
        },
        {
            "bufferView" : 9,
            "componentType" : 5126,
            "count" : 1413,
            "type" : "VEC3"
        },
        {
            "bufferView" : 10,
            "componentType" : 5126,
            "count" : 1413,
            "type" : "VEC2"
        },
        {
            "bufferView" : 11,
            "componentType" : 5123,
            "count" : 8064,
            "type" : "SCALAR"
        }
    ],
    "bufferViews" : [
        {
            "buffer" : 0,
            "byteLength" : 28500,
            "byteOffset" : 0,
            "target" : 34962
        },
        {
            "buffer" : 0,
            "byteLength" : 28500,
            "byteOffset" : 28500,
            "target" : 34962
        },
        {
            "buffer" : 0,
            "byteLength" : 19000,
            "byteOffset" : 57000,
            "target" : 34962
        },
        {
            "buffer" : 0,
            "byteLength" : 8256,
            "byteOffset" : 76000,
            "target" : 34963
        },
        {
            "buffer" : 0,
            "byteLength" : 5460,
            "byteOffset" : 84256,
            "target" : 34962
        },
        {
            "buffer" : 0,
            "byteLength" : 5460,
            "byteOffset" : 89716,
            "target" : 34962
        },
        {
            "buffer" : 0,
            "byteLength" : 3640,
            "byteOffset" : 95176,
            "target" : 34962
        },
        {
            "buffer" : 0,
            "byteLength" : 3228,
            "byteOffset" : 98816,
            "target" : 34963
        },
        {
            "buffer" : 0,
            "byteLength" : 16956,
            "byteOffset" : 102044,
            "target" : 34962
        },
        {
            "buffer" : 0,
            "byteLength" : 16956,
            "byteOffset" : 119000,
            "target" : 34962
        },
        {
            "buffer" : 0,
            "byteLength" : 11304,
            "byteOffset" : 135956,
            "target" : 34962
        },
        {
            "buffer" : 0,
            "byteLength" : 16128,
            "byteOffset" : 147260,
            "target" : 34963
        }
    ],
    "buffers" : [
        {
            "byteLength" : 163388,
            "uri" : "data:application/octet-stream;base64,"
        }
    ]
}
